<?xml version="1.0" encoding="UTF-8"?>
<svg width="64" height="64" viewBox="0 0 64 64" fill="none" xmlns="http://www.w3.org/2000/svg" role="img" aria-label="Receipt Icon">
  <title>Receipt Icon</title>
  <defs>
    <linearGradient id="g" x1="8" y1="8" x2="56" y2="56" gradientUnits="userSpaceOnUse">
      <stop offset="0" stop-color="#7C3AED"/>
      <stop offset="1" stop-color="#06B6D4"/>
    </linearGradient>
    <clipPath id="clip">
      <rect x="8" y="8" width="48" height="48" rx="12"/>
    </clipPath>
    <style>
      :root { --paper:#ffffff; --stroke:#0F172A; --accent:#111827; --bg:transparent; }
      @media (prefers-color-scheme: dark) {
        :root { --paper:#0B1020; --stroke:#E5E7EB; --accent:#CBD5E1; --bg:transparent; }
      }
    </style>
  </defs>

  <!-- 배경 원형 캡슐(투명, 그라디언트 스트로크만) -->
  <rect x="8" y="8" width="48" height="48" rx="12" fill="var(--bg)" stroke="url(#g)" stroke-width="1.5"/>

  <g clip-path="url(#clip)">
    <!-- 영수증 본체 -->
    <path d="
      M20 18
      H44
      a2 2 0 0 1 2 2
      V46
      l-3 -2.2 -3 2.2 -3 -2.2 -3 2.2 -3 -2.2 -3 2.2 -3 -2.2 -3 2.2
      V20
      a2 2 0 0 1 2 -2
      Z"
      fill="var(--paper)" stroke="var(--stroke)" stroke-width="1.5" stroke-linejoin="round"/>

    <!-- 상단 톱니(절취선 느낌) -->
    <path d="
      M20 20
      l2.4 -2 2.4 2 2.4 -2 2.4 2 2.4 -2 2.4 2 2.4 -2 2.4 2 2.4 -2 2.4 2"
      fill="none" stroke="var(--stroke)" stroke-width="1.5" stroke-linecap="round"/>

    <!-- 상호/제목 줄 -->
    <rect x="24" y="26" width="16" height="2.2" rx="1.1" fill="var(--accent)"/>
    <!-- 소계/부가세 줄 -->
    <rect x="22" y="31" width="20" height="1.8" rx="0.9" fill="var(--accent)" opacity="0.85"/>
    <rect x="22" y="35" width="14" height="1.8" rx="0.9" fill="var(--accent)" opacity="0.65"/>

    <!-- 바코드 -->
    <g transform="translate(22,40)" fill="var(--accent)">
      <rect width="1.4" height="6" rx="0.3"/>
      <rect x="2.4" width="0.8" height="6" rx="0.3" opacity="0.8"/>
      <rect x="4.0" width="1.1" height="6" rx="0.3"/>
      <rect x="6.0" width="0.9" height="6" rx="0.3" opacity="0.8"/>
      <rect x="7.6" width="1.6" height="6" rx="0.3"/>
      <rect x="10.0" width="0.8" height="6" rx="0.3" opacity="0.8"/>
      <rect x="11.6" width="1.2" height="6" rx="0.3"/>
      <rect x="13.6" width="0.9" height="6" rx="0.3" opacity="0.8"/>
      <rect x="15.2" width="1.4" height="6" rx="0.3"/>
    </g>

    <!-- 통화 포인트 아이콘 -->
    <circle cx="42" cy="36" r="5.4" fill="none" stroke="url(#g)" stroke-width="1.5"/>
    <path d="M42 33.8v4.6M40.2 35.4h3.6" stroke="var(--stroke)" stroke-width="1.4" stroke-linecap="round"/>
  </g>
</svg>
